<?xml version="1.0" encoding="UTF-8"?>
<svg width="470px" height="470px" viewBox="0 0 470 470" version="1.1" xmlns="http://www.w3.org/2000/svg" xmlns:xlink="http://www.w3.org/1999/xlink">
    <!-- Generator: Sketch 48.2 (47327) - http://www.bohemiancoding.com/sketch -->
    <title>chef</title>
    <desc>Created with Sketch.</desc>
    <defs></defs>
    <g id="Page-2" stroke="none" stroke-width="1" fill="none" fill-rule="evenodd">
        <g id="chef" fill-rule="nonzero">
            <path d="M128,224 C128,218.104 123.229,213.333 117.333,213.333 C111.437,213.333 106.666,218.104 106.666,224 C106.666,252.01 137.562,290.469 141.083,294.771 C143.198,297.334 146.26,298.667 149.343,298.667 C151.718,298.667 154.114,297.875 156.103,296.25 C160.655,292.51 161.311,285.792 157.582,281.229 C146.146,267.292 128,239.437 128,224 Z" id="Shape" fill="#D0021B"></path>
            <path d="M352,213.333 C346.104,213.333 341.333,218.104 341.333,224 C341.333,239.385 323.187,267.271 311.75,281.24 C308.021,285.792 308.687,292.511 313.24,296.25 C315.219,297.875 317.615,298.667 320,298.667 C323.083,298.667 326.135,297.334 328.25,294.771 C331.771,290.469 362.667,252.011 362.667,224 C362.667,218.104 357.896,213.333 352,213.333 Z" id="Shape" fill="#F8E71C"></path>
            <path d="M234.667,213.333 C228.771,213.333 224,218.104 224,224 L224,288 C224,293.896 228.771,298.667 234.667,298.667 C240.563,298.667 245.334,293.896 245.334,288 L245.334,224 C245.333,218.104 240.562,213.333 234.667,213.333 Z" id="Shape" fill="#B8E986"></path>
            <path d="M352,42.667 C345.536,42.667 338.781,43.522 331.766,44.825 C308.273,17.439 273.496,0 234.667,0 C195.838,0 161.06,17.439 137.568,44.824 C130.552,43.522 123.797,42.666 117.334,42.666 C52.635,42.667 0,95.302 0,160 C0,204.333 25,244.635 64.25,264.562 L64.042,425.76 C64.032,437.395 68.552,448.333 76.771,456.562 C85,464.802 95.927,469.333 107.563,469.333 L361.813,469.333 C385.813,469.333 405.334,449.812 405.334,425.812 L405.334,264.406 C444.438,244.427 469.334,204.187 469.334,160 C469.333,95.302 416.698,42.667 352,42.667 Z M384,425.813 C384,438.042 374.042,448.001 361.812,448.001 L107.562,448.001 C101.635,448.001 96.062,445.688 91.864,441.491 C87.676,437.293 85.364,431.72 85.374,425.783 L85.43,384 L384,384 L384,425.813 Z M390.604,247.802 C390.041,248.031 389.51,248.302 389.01,248.625 C387.666,249.458 386.562,250.563 385.739,251.833 C384.906,253.093 384.343,254.552 384.114,256.114 C384.02,256.708 383.989,257.302 383.999,257.906 L383.999,362.666 L85.457,362.666 L85.594,258.051 C85.604,257.468 85.573,256.874 85.49,256.301 C85.261,254.686 84.667,253.186 83.802,251.884 C82.989,250.665 81.927,249.603 80.635,248.79 C80.104,248.457 79.541,248.165 78.958,247.925 C43.948,232.615 21.333,198.135 21.333,160 C21.333,107.062 64.396,64 117.333,64 C119.402,64 121.586,64.25 123.729,64.419 C112.937,83.175 106.666,104.849 106.666,128 C106.666,133.896 111.437,138.667 117.333,138.667 C123.229,138.667 128,133.896 128,128 C128,69.187 175.854,21.333 234.667,21.333 C293.48,21.333 341.333,69.187 341.333,128 C341.333,133.896 346.104,138.667 352,138.667 C357.896,138.667 362.667,133.896 362.667,128 C362.667,104.849 356.396,83.176 345.604,64.419 C347.747,64.25 349.931,64 352,64 C404.938,64 448,107.063 448,160 C448,198 425.479,232.437 390.604,247.802 Z" id="Shape" fill="#F5A623"></path>
        </g>
    </g>
</svg>